<svg width="22" height="18" viewBox="0 0 22 18" fill="none" xmlns="http://www.w3.org/2000/svg">
	<path d="M3.01558 10.172L9.06248 13.5C9.62498 13.828 10.375 13.828 10.9375 13.5L16.9844 10.172V12.984C16.9844 13.734 16.6094 14.391 15.9531 14.766L10.9375 17.484C10.375 17.812 9.62498 17.812 9.06248 17.484L4.04688 14.766C3.39058 14.391 3.01558 13.734 3.01558 12.984V10.172ZM9.06248 0.515989C9.62498 0.187989 10.375 0.187989 10.9375 0.515989L20.5 5.71899C20.7812 5.90599 21.0156 6.23401 21.0156 6.60901V12.984C21.0156 13.547 20.5469 14.016 19.9844 14.016C19.4688 14.016 19 13.547 19 12.984V7.078L10.9375 11.484C10.375 11.812 9.62498 11.812 9.06248 11.484L0.624981 6.89099C-0.0781187 6.51599 -0.0781187 5.48401 0.624981 5.10901L9.06248 0.515989Z" fill="#6E6B7B" />
</svg>
