<?xml version="1.0" encoding="UTF-8" standalone="no" ?>
<!DOCTYPE svg PUBLIC "-//W3C//DTD SVG 1.1//EN" "http://www.w3.org/Graphics/SVG/1.1/DTD/svg11.dtd">
<svg xmlns="http://www.w3.org/2000/svg" xmlns:xlink="http://www.w3.org/1999/xlink" version="1.1" width="25" height="25" viewBox="0 0 25 25" xml:space="preserve">
<desc>Created with Fabric.js 5.3.0</desc>
<defs>
</defs>
<g transform="matrix(1 0 0 1 12.5 12.5)" id="t6iBE1u9n4HKmsChcZclX"  >
<path style="stroke: none; stroke-width: 1; stroke-dasharray: none; stroke-linecap: butt; stroke-dashoffset: 0; stroke-linejoin: miter; stroke-miterlimit: 4; fill: rgb(110,107,123); fill-rule: nonzero; opacity: 1;"  transform=" translate(-408, -264)" d="M 402 261.984 C 400.922 261.984 399.984 262.922 399.984 264 C 399.984 265.078 400.922 266.016 402 266.016 C 403.078 266.016 404.016 265.078 404.016 264 C 404.016 262.922 403.078 261.984 402 261.984 Z M 414 261.984 C 412.922 261.984 411.984 262.922 411.984 264 C 411.984 265.078 412.922 266.016 414 266.016 C 415.078 266.016 416.016 265.078 416.016 264 C 416.016 262.922 415.078 261.984 414 261.984 Z M 408 261.984 C 406.922 261.984 405.984 262.922 405.984 264 C 405.984 265.078 406.922 266.016 408 266.016 C 409.078 266.016 410.016 265.078 410.016 264 C 410.016 262.922 409.078 261.984 408 261.984 Z" stroke-linecap="round" />
</g>
</svg>