<?xml version="1.0" encoding="UTF-8" standalone="no" ?>
<!DOCTYPE svg PUBLIC "-//W3C//DTD SVG 1.1//EN" "http://www.w3.org/Graphics/SVG/1.1/DTD/svg11.dtd">
<svg xmlns="http://www.w3.org/2000/svg" xmlns:xlink="http://www.w3.org/1999/xlink" version="1.1" width="25" height="25" viewBox="0 0 25 25" xml:space="preserve">
<desc>Created with Fabric.js 5.3.0</desc>
<defs>
</defs>
<g transform="matrix(1 0 0 1 89.3029690541 33.23)" id="ltGTpMdgsEdPQp1FpzkUZ"  >
<path style="stroke: none; stroke-width: 1; stroke-dasharray: none; stroke-linecap: butt; stroke-dashoffset: 0; stroke-linejoin: miter; stroke-miterlimit: 4; fill: rgb(110,107,123); fill-rule: nonzero; opacity: 1;"  transform=" translate(-420.631, -173)" d="M 423.25 179.012 L 415.762 179.012 L 415.762 169.238 C 415.762 168.852 415.41 168.5 414.988 168.5 C 414.602 168.5 414.25 168.852 414.25 169.238 L 414.25 179.012 C 414.25 179.82 414.918 180.488 415.762 180.488 L 423.25 180.488 C 423.672 180.488 423.988 180.172 423.988 179.75 C 423.988 179.328 423.672 179.012 423.25 179.012 Z M 427.012 175.988 L 427.012 166.988 C 427.012 166.18 426.309 165.512 425.5 165.512 L 418.75 165.512 C 417.941 165.512 417.238 166.18 417.238 166.988 L 417.238 175.988 C 417.238 176.832 417.941 177.5 418.75 177.5 L 425.5 177.5 C 426.309 177.5 427.012 176.832 427.012 175.988 Z M 425.5 175.988 L 418.75 175.988 L 418.75 166.988 L 425.5 166.988 L 425.5 175.988 Z" stroke-linecap="round" />
</g>
<g transform="matrix(1 0 0 1 108.1185404827 -61.25)" id="666c-2xgQHBimKt-_ei7U"  >
<path style="stroke: none; stroke-width: 1; stroke-dasharray: none; stroke-linecap: butt; stroke-dashoffset: 0; stroke-linejoin: miter; stroke-miterlimit: 4; fill: rgb(110,107,123); fill-rule: nonzero; opacity: 1;"  transform=" translate(-179.2, -264)" d="M 187.216 254.016 L 171.184 254.016 C 170.106 254.016 169.216 254.906 169.216 255.984 L 169.216 273.984 L 173.2 270 L 187.216 270 C 188.294 270 189.184 269.109 189.184 267.984 L 189.184 255.984 C 189.184 254.906 188.294 254.016 187.216 254.016 Z M 174.184 261 L 184.216 261 C 184.731 261 185.2 261.469 185.2 261.984 C 185.2 262.547 184.731 263.016 184.216 263.016 L 174.184 263.016 C 173.669 263.016 173.2 262.547 173.2 261.984 C 173.2 261.469 173.669 261 174.184 261 Z M 180.184 266.016 L 174.184 266.016 C 173.669 266.016 173.2 265.547 173.2 264.984 C 173.2 264.469 173.669 264 174.184 264 L 180.184 264 C 180.747 264 181.216 264.469 181.216 264.984 C 181.216 265.547 180.747 266.016 180.184 266.016 Z M 184.216 260.016 L 174.184 260.016 C 173.669 260.016 173.2 259.547 173.2 258.984 C 173.2 258.469 173.669 258 174.184 258 L 184.216 258 C 184.731 258 185.2 258.469 185.2 258.984 C 185.2 259.547 184.731 260.016 184.216 260.016 Z" stroke-linecap="round" />
</g>
<g transform="matrix(1 0 0 1 93.8899690541 -26.306)" id="PYuguqcECH3vxXSDlkJXx"  >
<path style="stroke: none; stroke-width: 1; stroke-dasharray: none; stroke-linecap: butt; stroke-dashoffset: 0; stroke-linejoin: miter; stroke-miterlimit: 4; fill: rgb(110,107,123); fill-rule: nonzero; opacity: 1;"  transform=" translate(-236.4, -262.992)" d="M 243.384 255 L 242.4 255 L 242.4 254.016 C 242.4 253.453 241.931 252.984 241.416 252.984 C 240.853 252.984 240.384 253.453 240.384 254.016 L 240.384 255 L 232.416 255 L 232.416 254.016 C 232.416 253.453 231.947 252.984 231.384 252.984 C 230.869 252.984 230.4 253.453 230.4 254.016 L 230.4 255 L 229.416 255 C 228.291 255 227.4 255.891 227.4 257.016 L 227.4 270.984 C 227.4 272.109 228.291 273 229.416 273 L 243.384 273 C 244.509 273 245.4 272.109 245.4 270.984 L 245.4 257.016 C 245.4 255.891 244.509 255 243.384 255 Z M 242.4 270.984 L 230.4 270.984 C 229.838 270.984 229.416 270.562 229.416 270 L 229.416 260.016 L 243.384 260.016 L 243.384 270 C 243.384 270.562 242.963 270.984 242.4 270.984 Z M 232.416 261.984 L 235.416 261.984 C 235.931 261.984 236.4 262.453 236.4 263.016 L 236.4 266.016 C 236.4 266.531 235.931 267 235.416 267 L 232.416 267 C 231.853 267 231.384 266.531 231.384 266.016 L 231.384 263.016 C 231.384 262.453 231.853 261.984 232.416 261.984 Z" stroke-linecap="round" />
</g>
<g transform="matrix(1 0 0 1 12.5 12.5)" id="uDfxpayrI2-DZ4NUjjzUp"  >
<path style="stroke: none; stroke-width: 1; stroke-dasharray: none; stroke-linecap: butt; stroke-dashoffset: 0; stroke-linejoin: miter; stroke-miterlimit: 4; fill: rgb(110,107,123); fill-rule: nonzero; opacity: 1;"  transform=" translate(-293.6, -264)" d="M 301.616 255.984 L 285.584 255.984 C 284.506 255.984 283.616 256.922 283.616 258 L 283.616 270 C 283.616 271.078 284.506 272.016 285.584 272.016 L 301.616 272.016 C 302.694 272.016 303.584 271.078 303.584 270 L 303.584 258 C 303.584 256.922 302.694 255.984 301.616 255.984 Z M 301.194 260.25 L 294.116 264.656 C 293.787 264.891 293.412 264.891 293.084 264.656 L 286.006 260.25 C 285.772 260.109 285.584 259.828 285.584 259.547 C 285.584 258.844 286.334 258.469 286.897 258.797 L 293.6 263.016 L 300.303 258.797 C 300.866 258.469 301.616 258.844 301.616 259.547 C 301.616 259.828 301.428 260.109 301.194 260.25 Z" stroke-linecap="round" />
</g>
<g transform="matrix(1 0 0 1 96.1839690541 64.7382481745)" id="1HrByvrI62OG0d00F2RL-"  >
<path style="stroke: none; stroke-width: 1; stroke-dasharray: none; stroke-linecap: butt; stroke-dashoffset: 0; stroke-linejoin: miter; stroke-miterlimit: 4; fill: rgb(110,107,123); fill-rule: nonzero; opacity: 1;"  transform=" translate(-350.8202481745, -263.9797518255)" d="M 358.019 267.281 L 355.487 266.953 C 354.878 266.906 354.269 267.094 353.847 267.562 L 352.019 269.391 C 349.159 267.938 346.862 265.641 345.409 262.781 L 347.284 260.953 C 347.706 260.531 347.894 259.922 347.847 259.312 L 347.566 256.781 C 347.425 255.75 346.581 255 345.55 255 L 343.816 255 C 342.691 255 341.753 255.938 341.847 257.062 C 342.362 265.641 349.206 272.438 357.737 272.953 C 358.862 273.047 359.8 272.109 359.8 270.984 L 359.8 269.25 C 359.8 268.219 359.05 267.375 358.019 267.281 Z" stroke-linecap="round" />
</g>
<g transform="matrix(1 0 0 1 97.6345404827 94.218)" id="t6iBE1u9n4HKmsChcZclX"  >
<path style="stroke: none; stroke-width: 1; stroke-dasharray: none; stroke-linecap: butt; stroke-dashoffset: 0; stroke-linejoin: miter; stroke-miterlimit: 4; fill: rgb(110,107,123); fill-rule: nonzero; opacity: 1;"  transform=" translate(-408, -264)" d="M 402 261.984 C 400.922 261.984 399.984 262.922 399.984 264 C 399.984 265.078 400.922 266.016 402 266.016 C 403.078 266.016 404.016 265.078 404.016 264 C 404.016 262.922 403.078 261.984 402 261.984 Z M 414 261.984 C 412.922 261.984 411.984 262.922 411.984 264 C 411.984 265.078 412.922 266.016 414 266.016 C 415.078 266.016 416.016 265.078 416.016 264 C 416.016 262.922 415.078 261.984 414 261.984 Z M 408 261.984 C 406.922 261.984 405.984 262.922 405.984 264 C 405.984 265.078 406.922 266.016 408 266.016 C 409.078 266.016 410.016 265.078 410.016 264 C 410.016 262.922 409.078 261.984 408 261.984 Z" stroke-linecap="round" />
</g>
<g transform="matrix(1 0 0 1 -55.4357521116 -28.0281278313)" id="hmVd4GhrI931E58XEVVwy"  >
<path style="stroke: none; stroke-width: 1; stroke-dasharray: none; stroke-linecap: butt; stroke-dashoffset: 0; stroke-linejoin: miter; stroke-miterlimit: 4; fill: rgb(115,103,240); fill-rule: nonzero; opacity: 1;"  transform=" translate(-11.5, -11.5)" d="M 0 23 L 0 0 L 23 0 L 23 23 z" stroke-linecap="round" />
</g>
<g transform="matrix(1 0 0 1 -55.4357521116 -27.6711278313)" id="qSwjwzE9HFqO78ECq1uE8" clip-path="url(#CLIPPATH_3)"  >
<clipPath id="CLIPPATH_3" >
	<rect id="clip3_0_384" x="-535" y="-467.5" rx="0" ry="0" width="1070" height="935" />
</clipPath>
<path style="stroke: none; stroke-width: 1; stroke-dasharray: none; stroke-linecap: butt; stroke-dashoffset: 0; stroke-linejoin: miter; stroke-miterlimit: 4; fill: rgb(255,255,255); fill-rule: nonzero; opacity: 1;"  transform=" translate(-502.5, -505.5)" d="M 506.508 501.492 L 498.492 501.492 C 497.953 501.492 497.508 501.961 497.508 502.5 L 497.508 508.5 C 497.508 509.039 497.953 509.508 498.492 509.508 L 506.508 509.508 C 507.047 509.508 507.492 509.039 507.492 508.5 L 507.492 502.5 C 507.492 501.961 507.047 501.492 506.508 501.492 Z M 506.297 503.625 L 503.039 505.664 C 502.711 505.875 502.289 505.875 501.961 505.664 L 498.703 503.625 C 498.586 503.555 498.492 503.414 498.492 503.273 C 498.492 502.922 498.867 502.734 499.148 502.898 L 502.5 505.008 L 505.852 502.898 C 506.133 502.734 506.508 502.922 506.508 503.273 C 506.508 503.414 506.414 503.555 506.297 503.625 Z" stroke-linecap="round" />
</g>
<g transform="matrix(1 0 0 1 -59.8277037198 59.4718721687)" id="VYwiOJGUB1lQ_7I_v97FZ"  >
<path style="stroke: none; stroke-width: 1; stroke-dasharray: none; stroke-linecap: butt; stroke-dashoffset: 0; stroke-linejoin: miter; stroke-miterlimit: 4; fill: rgb(115,103,240); fill-rule: nonzero; opacity: 1;"  transform=" translate(-11.5, -11.5)" d="M 0 23 L 0 0 L 23 0 L 23 23 z" stroke-linecap="round" />
</g>
<g transform="matrix(1 0 0 1 -59.8277037198 59.4718721687)" id="Dz_BzHB_-9dJ2J42PPeZu" clip-path="url(#CLIPPATH_4)"  >
<clipPath id="CLIPPATH_4" >
	<rect id="clip3_0_384" x="-535" y="-467.5" rx="0" ry="0" width="1070" height="935" />
</clipPath>
<path style="stroke: none; stroke-width: 1; stroke-dasharray: none; stroke-linecap: butt; stroke-dashoffset: 0; stroke-linejoin: miter; stroke-miterlimit: 4; fill: rgb(255,255,255); fill-rule: nonzero; opacity: 1;"  transform=" translate(-502.5, -576.5)" d="M 506.508 571.508 L 498.492 571.508 C 497.953 571.508 497.508 571.953 497.508 572.492 L 497.508 581.492 L 499.5 579.5 L 506.508 579.5 C 507.047 579.5 507.492 579.055 507.492 578.492 L 507.492 572.492 C 507.492 571.953 507.047 571.508 506.508 571.508 Z M 499.992 575 L 505.008 575 C 505.266 575 505.5 575.234 505.5 575.492 C 505.5 575.773 505.266 576.008 505.008 576.008 L 499.992 576.008 C 499.734 576.008 499.5 575.773 499.5 575.492 C 499.5 575.234 499.734 575 499.992 575 Z M 502.992 577.508 L 499.992 577.508 C 499.734 577.508 499.5 577.273 499.5 576.992 C 499.5 576.734 499.734 576.5 499.992 576.5 L 502.992 576.5 C 503.273 576.5 503.508 576.734 503.508 576.992 C 503.508 577.273 503.273 577.508 502.992 577.508 Z M 505.008 574.508 L 499.992 574.508 C 499.734 574.508 499.5 574.273 499.5 573.992 C 499.5 573.734 499.734 573.5 499.992 573.5 L 505.008 573.5 C 505.266 573.5 505.5 573.734 505.5 573.992 C 505.5 574.273 505.266 574.508 505.008 574.508 Z" stroke-linecap="round" />
</g>
<g transform="matrix(1 0 0 1 -3.551894865 59.4718721687)" id="X3Tzj6eXgCaQEyT9vkFWm"  >
<path style="stroke: none; stroke-width: 1; stroke-dasharray: none; stroke-linecap: butt; stroke-dashoffset: 0; stroke-linejoin: miter; stroke-miterlimit: 4; fill: rgb(115,103,240); fill-rule: nonzero; opacity: 1;"  transform=" translate(-11.5, -11.5)" d="M 0 23 L 0 0 L 23 0 L 23 23 z" stroke-linecap="round" />
</g>
<g transform="matrix(1 0 0 1 -3.541957943 59.4619352467)" id="fcyjw9JXYSVkooJtKbEw0" clip-path="url(#CLIPPATH_5)"  >
<clipPath id="CLIPPATH_5" >
	<rect id="clip3_0_384" x="-535" y="-467.5" rx="0" ry="0" width="1070" height="935" />
</clipPath>
<path style="stroke: none; stroke-width: 1; stroke-dasharray: none; stroke-linecap: butt; stroke-dashoffset: 0; stroke-linejoin: miter; stroke-miterlimit: 4; fill: rgb(255,255,255); fill-rule: nonzero; opacity: 1;"  transform=" translate(-502.509936922, -800.990063078)" d="M 506.109 802.641 L 504.844 802.477 C 504.539 802.453 504.234 802.547 504.023 802.781 L 503.109 803.695 C 501.68 802.969 500.531 801.82 499.805 800.391 L 500.742 799.477 C 500.953 799.266 501.047 798.961 501.023 798.656 L 500.883 797.391 C 500.812 796.875 500.391 796.5 499.875 796.5 L 499.008 796.5 C 498.445 796.5 497.977 796.969 498.023 797.531 C 498.281 801.82 501.703 805.219 505.969 805.477 C 506.531 805.523 507 805.055 507 804.492 L 507 803.625 C 507 803.109 506.625 802.688 506.109 802.641 Z" stroke-linecap="round" />
</g>
<g transform="matrix(1 0 0 1 -59.8277037198 106.3201867754)" id="uT2LseYwsvuVVzCwuVngO"  >
<path style="stroke: none; stroke-width: 1; stroke-dasharray: none; stroke-linecap: butt; stroke-dashoffset: 0; stroke-linejoin: miter; stroke-miterlimit: 4; fill: rgb(115,103,240); fill-rule: nonzero; opacity: 1;"  transform=" translate(-4.5, -4.5)" d="M 0 9 L 0 0 L 9 0 L 9 9 z" stroke-linecap="round" />
</g>
</svg>