<?xml version="1.0" encoding="UTF-8" standalone="no" ?>
<!DOCTYPE svg PUBLIC "-//W3C//DTD SVG 1.1//EN" "http://www.w3.org/Graphics/SVG/1.1/DTD/svg11.dtd">
<svg xmlns="http://www.w3.org/2000/svg" xmlns:xlink="http://www.w3.org/1999/xlink" version="1.1" width="25" height="25" viewBox="0 0 25 25">
<g transform="matrix(1,0,0,1,-39.6,310.5)" id="ltGTpMdgsEdPQp1FpzkUZ"  >
<path style="fill: rgb(110, 107, 123); fill-rule: nonzero; stroke: none; stroke-width: 1; stroke-linecap: butt; stroke-linejoin: miter; stroke-dasharray: none; stroke-dashoffset: 0; stroke-miterlimit: 4; opacity: 1"  transform="translate(-420.6,-173)" d="M 423.3 179 L 415.8 179 L 415.8 169.2 C 415.8 168.9 415.4 168.5 415 168.5 C 414.6 168.5 414.3 168.9 414.3 169.2 L 414.3 179 C 414.3 179.8 414.9 180.5 415.8 180.5 L 423.3 180.5 C 423.7 180.5 424 180.2 424 179.8 C 424 179.3 423.7 179 423.3 179 Z M 427 176 L 427 167 C 427 166.2 426.3 165.5 425.5 165.5 L 418.8 165.5 C 417.9 165.5 417.2 166.2 417.2 167 L 417.2 176 C 417.2 176.8 417.9 177.5 418.8 177.5 L 425.5 177.5 C 426.3 177.5 427 176.8 427 176 Z M 425.5 176 L 418.8 176 L 418.8 167 L 425.5 167 L 425.5 176 Z" stroke-linecap="round" />
</g>
<g transform="matrix(1,0,0,1,-116.6,107.5)" id="nZRYOO9Y4bJzpoIH3o5lw"  >
<path style="fill: rgb(110, 107, 123); fill-rule: nonzero; stroke: none; stroke-width: 1; stroke-linecap: butt; stroke-linejoin: miter; stroke-dasharray: none; stroke-dashoffset: 0; stroke-miterlimit: 4; opacity: 1"  transform="translate(-122.1,-265.5)" d="M 124 263 C 124 263.5 123.5 264 123 264 L 114 264 C 113.5 264 113 263.5 113 263 C 113 262.5 113.5 262 114 262 L 123 262 C 123.5 262 124 262.5 124 263 Z M 113 259 C 113 259.5 113.5 260 114 260 L 123 260 C 123.5 260 124 259.5 124 259 C 124 258.5 123.5 258 123 258 L 114 258 C 113.5 258 113 258.5 113 259 Z M 120 267 C 120 266.4 119.6 266 119 266 L 114 266 C 113.5 266 113 266.4 113 267 C 113 267.6 113.5 268 114 268 L 119 268 C 119.6 268 120 267.6 120 267 Z M 128 264.9 L 128.7 264.1 C 129.1 263.8 129.7 263.8 130.1 264.1 L 130.9 264.9 C 131.2 265.3 131.2 265.9 130.9 266.3 L 130.1 267 L 128 264.9 Z M 127.3 265.6 L 122.1 270.8 C 122 270.8 122 270.9 122 271.1 L 122 272.5 C 122 272.8 122.2 273 122.5 273 L 123.9 273 C 124.1 273 124.2 273 124.3 272.9 L 129.4 267.7 L 127.3 265.6 Z" stroke-linecap="round" />
</g>
<g transform="matrix(1,0,0,1,-20.8,216)" id="666c-2xgQHBimKt-_ei7U"  >
<path style="fill: rgb(110, 107, 123); fill-rule: nonzero; stroke: none; stroke-width: 1; stroke-linecap: butt; stroke-linejoin: miter; stroke-dasharray: none; stroke-dashoffset: 0; stroke-miterlimit: 4; opacity: 1"  transform="translate(-179.2,-264)" d="M 187.2 254 L 171.2 254 C 170.1 254 169.2 254.9 169.2 256 L 169.2 274 L 173.2 270 L 187.2 270 C 188.3 270 189.2 269.1 189.2 268 L 189.2 256 C 189.2 254.9 188.3 254 187.2 254 Z M 174.2 261 L 184.2 261 C 184.7 261 185.2 261.5 185.2 262 C 185.2 262.5 184.7 263 184.2 263 L 174.2 263 C 173.7 263 173.2 262.5 173.2 262 C 173.2 261.5 173.7 261 174.2 261 Z M 180.2 266 L 174.2 266 C 173.7 266 173.2 265.5 173.2 265 C 173.2 264.5 173.7 264 174.2 264 L 180.2 264 C 180.7 264 181.2 264.5 181.2 265 C 181.2 265.5 180.7 266 180.2 266 Z M 184.2 260 L 174.2 260 C 173.7 260 173.2 259.5 173.2 259 C 173.2 258.5 173.7 258 174.2 258 L 184.2 258 C 184.7 258 185.2 258.5 185.2 259 C 185.2 259.5 184.7 260 184.2 260 Z" stroke-linecap="round" />
</g>
<g transform="matrix(1,0,0,1,-35,251)" id="PYuguqcECH3vxXSDlkJXx"  >
<path style="fill: rgb(110, 107, 123); fill-rule: nonzero; stroke: none; stroke-width: 1; stroke-linecap: butt; stroke-linejoin: miter; stroke-dasharray: none; stroke-dashoffset: 0; stroke-miterlimit: 4; opacity: 1"  transform="translate(-236.4,-263)" d="M 243.4 255 L 242.4 255 L 242.4 254 C 242.4 253.5 241.9 253 241.4 253 C 240.9 253 240.4 253.5 240.4 254 L 240.4 255 L 232.4 255 L 232.4 254 C 232.4 253.5 231.9 253 231.4 253 C 230.9 253 230.4 253.5 230.4 254 L 230.4 255 L 229.4 255 C 228.3 255 227.4 255.9 227.4 257 L 227.4 271 C 227.4 272.1 228.3 273 229.4 273 L 243.4 273 C 244.5 273 245.4 272.1 245.4 271 L 245.4 257 C 245.4 255.9 244.5 255 243.4 255 Z M 242.4 271 L 230.4 271 C 229.8 271 229.4 270.6 229.4 270 L 229.4 260 L 243.4 260 L 243.4 270 C 243.4 270.6 243 271 242.4 271 Z M 232.4 262 L 235.4 262 C 235.9 262 236.4 262.5 236.4 263 L 236.4 266 C 236.4 266.5 235.9 267 235.4 267 L 232.4 267 C 231.9 267 231.4 266.5 231.4 266 L 231.4 263 C 231.4 262.5 231.9 262 232.4 262 Z" stroke-linecap="round" />
</g>
<g transform="matrix(1,0,0,1,-36,280.5)" id="uDfxpayrI2-DZ4NUjjzUp"  >
<path style="fill: rgb(110, 107, 123); fill-rule: nonzero; stroke: none; stroke-width: 1; stroke-linecap: butt; stroke-linejoin: miter; stroke-dasharray: none; stroke-dashoffset: 0; stroke-miterlimit: 4; opacity: 1"  transform="translate(-293.6,-264)" d="M 301.6 256 L 285.6 256 C 284.5 256 283.6 256.9 283.6 258 L 283.6 270 C 283.6 271.1 284.5 272 285.6 272 L 301.6 272 C 302.7 272 303.6 271.1 303.6 270 L 303.6 258 C 303.6 256.9 302.7 256 301.6 256 Z M 301.2 260.3 L 294.1 264.7 C 293.8 264.9 293.4 264.9 293.1 264.7 L 286 260.3 C 285.8 260.1 285.6 259.8 285.6 259.5 C 285.6 258.8 286.3 258.5 286.9 258.8 L 293.6 263 L 300.3 258.8 C 300.9 258.5 301.6 258.8 301.6 259.5 C 301.6 259.8 301.4 260.1 301.2 260.3 Z" stroke-linecap="round" />
</g>
<g transform="matrix(1,0,0,1,-32.7,342)" id="1HrByvrI62OG0d00F2RL-"  >
<path style="fill: rgb(110, 107, 123); fill-rule: nonzero; stroke: none; stroke-width: 1; stroke-linecap: butt; stroke-linejoin: miter; stroke-dasharray: none; stroke-dashoffset: 0; stroke-miterlimit: 4; opacity: 1"  transform="translate(-350.8,-264)" d="M 358 267.3 L 355.5 267 C 354.9 266.9 354.3 267.1 353.8 267.6 L 352 269.4 C 349.2 267.9 346.9 265.6 345.4 262.8 L 347.3 261 C 347.7 260.5 347.9 259.9 347.8 259.3 L 347.6 256.8 C 347.4 255.8 346.6 255 345.6 255 L 343.8 255 C 342.7 255 341.8 255.9 341.8 257.1 C 342.4 265.6 349.2 272.4 357.7 273 C 358.9 273 359.8 272.1 359.8 271 L 359.8 269.3 C 359.8 268.2 359.1 267.4 358 267.3 Z" stroke-linecap="round" />
</g>
<g transform="matrix(1,0,0,1,-31.3,371.5)" id="t6iBE1u9n4HKmsChcZclX"  >
<path style="fill: rgb(110, 107, 123); fill-rule: nonzero; stroke: none; stroke-width: 1; stroke-linecap: butt; stroke-linejoin: miter; stroke-dasharray: none; stroke-dashoffset: 0; stroke-miterlimit: 4; opacity: 1"  transform="translate(-408,-264)" d="M 402 262 C 400.9 262 400 262.9 400 264 C 400 265.1 400.9 266 402 266 C 403.1 266 404 265.1 404 264 C 404 262.9 403.1 262 402 262 Z M 414 262 C 412.9 262 412 262.9 412 264 C 412 265.1 412.9 266 414 266 C 415.1 266 416 265.1 416 264 C 416 262.9 415.1 262 414 262 Z M 408 262 C 406.9 262 406 262.9 406 264 C 406 265.1 406.9 266 408 266 C 409.1 266 410 265.1 410 264 C 410 262.9 409.1 262 408 262 Z" stroke-linecap="round" />
</g>
<g transform="matrix(1,0,0,1,-92.8,363.5)" id="OiafBGrVhtwWN-uBq5yUH"  >
<path style="fill: rgb(110, 107, 123); fill-rule: nonzero; stroke: none; stroke-width: 1; stroke-linecap: butt; stroke-linejoin: miter; stroke-dasharray: none; stroke-dashoffset: 0; stroke-miterlimit: 4; opacity: 1"  transform="translate(-108,-334)" d="M 107.3 338 C 107.3 338.7 106.7 339.3 106 339.3 C 105.3 339.3 104.7 338.7 104.7 338 C 104.7 337.3 105.3 336.7 106 336.7 C 106.7 336.7 107.3 337.3 107.3 338 Z M 106 332.7 C 105.3 332.7 104.7 333.3 104.7 334 C 104.7 334.7 105.3 335.3 106 335.3 C 106.7 335.3 107.3 334.7 107.3 334 C 107.3 333.3 106.7 332.7 106 332.7 Z M 106 328.7 C 105.3 328.7 104.7 329.3 104.7 330 C 104.7 330.7 105.3 331.3 106 331.3 C 106.7 331.3 107.3 330.7 107.3 330 C 107.3 329.3 106.7 328.7 106 328.7 Z M 110 331.3 C 110.7 331.3 111.3 330.7 111.3 330 C 111.3 329.3 110.7 328.7 110 328.7 C 109.3 328.7 108.7 329.3 108.7 330 C 108.7 330.7 109.3 331.3 110 331.3 Z M 110 332.7 C 109.3 332.7 108.7 333.3 108.7 334 C 108.7 334.7 109.3 335.3 110 335.3 C 110.7 335.3 111.3 334.7 111.3 334 C 111.3 333.3 110.7 332.7 110 332.7 Z M 110 336.7 C 109.3 336.7 108.7 337.3 108.7 338 C 108.7 338.7 109.3 339.3 110 339.3 C 110.7 339.3 111.3 338.7 111.3 338 C 111.3 337.3 110.7 336.7 110 336.7 Z" stroke-linecap="round" />
</g>
<g transform="matrix(1,0,0,1,-34.8,404.5)" id="oh3499CoN-enBXGCm5JG2"  >
<path style="fill: rgb(110, 107, 123); fill-rule: nonzero; stroke: none; stroke-width: 1; stroke-linecap: butt; stroke-linejoin: miter; stroke-dasharray: none; stroke-dashoffset: 0; stroke-miterlimit: 4; opacity: 1"  transform="translate(-424,-910.5)" d="M 419.5 913.2 L 419.5 914.7 C 419.5 914.9 419.6 915 419.8 915 L 421.3 915 C 421.3 915 421.4 915 421.4 914.9 L 426.9 909.5 L 425 907.6 L 419.6 913.1 C 419.5 913.1 419.5 913.1 419.5 913.2 Z M 428.4 908 C 428.5 907.8 428.5 907.5 428.4 907.3 L 427.2 906.1 C 427 906 426.7 906 426.5 906.1 L 425.6 907.1 L 427.4 908.9 L 428.4 908 Z" stroke-linecap="round" />
</g>
<g transform="matrix(1,0,0,1,-116,188)" id="14RTPM1O1670MKPaRGjGE" clip-path="url(#CLIPPATH_507)"  >
<path style="fill: rgb(110, 107, 123); fill-rule: nonzero; stroke: none; stroke-width: 1; stroke-linecap: butt; stroke-linejoin: miter; stroke-dasharray: none; stroke-dashoffset: 0; stroke-miterlimit: 4; opacity: 1"  transform="translate(-1568.5,-99)" d="M 1566 93 C 1566 91.9 1566.9 91 1568 91 C 1569.1 91 1570 91.9 1570 93 C 1570 94.1 1569.1 95 1568 95 C 1566.9 95 1566 94.1 1566 93 Z M 1560 105 C 1560 103.9 1560.9 103 1562 103 C 1563.1 103 1564 103.9 1564 105 C 1564 106.1 1563.1 107 1562 107 C 1560.9 107 1560 106.1 1560 105 Z M 1560 99 C 1560 97.9 1560.9 97 1562 97 C 1563.1 97 1564 97.9 1564 99 C 1564 100.1 1563.1 101 1562 101 C 1560.9 101 1560 100.1 1560 99 Z M 1560 93 C 1560 91.9 1560.9 91 1562 91 C 1563.1 91 1564 91.9 1564 93 C 1564 94.1 1563.1 95 1562 95 C 1560.9 95 1560 94.1 1560 93 Z M 1572 93 C 1572 91.9 1572.9 91 1574 91 C 1575.1 91 1576 91.9 1576 93 C 1576 94.1 1575.1 95 1574 95 C 1572.9 95 1572 94.1 1572 93 Z M 1567 105 L 1567 106.5 C 1567 106.8 1567.2 107 1567.5 107 L 1568.9 107 C 1569 107 1569.2 107 1569.3 106.8 L 1575.1 101 L 1573 98.9 L 1567.2 104.7 C 1567.1 104.8 1567 105 1567 105 Z M 1568 101 L 1570 99 L 1570 99 C 1570 97.9 1569.1 97 1568 97 C 1566.9 97 1566 97.9 1566 99 C 1566 100.1 1566.9 101 1568 101 L 1568 101 Z M 1576.9 98.6 L 1575.5 97.2 C 1575.2 96.9 1574.9 96.9 1574.8 97.2 L 1573.7 98.2 L 1575.8 100.3 L 1576.9 99.3 C 1577 99 1577 98.8 1576.9 98.6 Z" stroke-linecap="round" />
</g>
<g transform="matrix(1,0,0,1,12.6,12.7)" id="m7lwnnFt8sfvW5JBFyg9q" clip-path="url(#CLIPPATH_508)"  >
<!-- COLOR fill -->
<path style="fill: #000; fill-rule: nonzero; stroke: none; stroke-width: 1; stroke-linecap: butt; stroke-linejoin: miter; stroke-dasharray: none; stroke-dashoffset: 0; stroke-miterlimit: 4; opacity: 1"  transform="translate(-510,-227.9)" d="M 517.3 219.6 L 516.3 219.6 L 516.3 218.6 C 516.3 218 515.8 217.5 515.2 217.5 C 514.6 217.5 514.1 218 514.1 218.6 L 514.1 219.6 L 505.9 219.6 L 505.9 218.6 C 505.9 218 505.4 217.5 504.8 217.5 C 504.2 217.5 503.8 218 503.8 218.6 L 503.8 219.6 L 502.7 219.6 C 501.6 219.6 500.6 220.6 500.6 221.7 L 500.6 236.3 C 500.6 237.4 501.6 238.4 502.7 238.4 L 517.3 238.4 C 518.4 238.4 519.4 237.4 519.4 236.3 L 519.4 221.7 C 519.4 220.6 518.4 219.6 517.3 219.6 Z M 516.3 236.3 L 503.8 236.3 C 503.2 236.3 502.7 235.8 502.7 235.3 L 502.7 224.8 L 517.3 224.8 L 517.3 235.3 C 517.3 235.8 516.8 236.3 516.3 236.3 Z M 505.9 226.9 L 509 226.9 C 509.5 226.9 510 227.4 510 228 L 510 231.1 C 510 231.6 509.5 232.1 509 232.1 L 505.9 232.1 C 505.3 232.1 504.8 231.6 504.8 231.1 L 504.8 228 C 504.8 227.4 505.3 226.9 505.9 226.9 Z" stroke-linecap="round" />
</g>
<g transform="matrix(1,0,0,1,-128.3,31.5)" id="Rn_T9AGJnXNCcmFpTNd_V" clip-path="url(#CLIPPATH_509)"  >
<clipPath id="CLIPPATH_509" >
	<rect id="clip1_0_384" x="-557.5" y="-656" rx="0" ry="0" width="1115" height="1312" />
</clipPath>
<path style="fill: rgb(110, 107, 123); fill-rule: nonzero; stroke: none; stroke-width: 1; stroke-linecap: butt; stroke-linejoin: miter; stroke-dasharray: none; stroke-dashoffset: 0; stroke-miterlimit: 4; opacity: 1"  transform="translate(-886,-218)" d="M 891 218 C 891 217.8 891 217.7 891 217.5 L 892.2 216.6 C 892.5 216.4 892.6 216 892.4 215.8 L 891.2 213.6 C 891 213.3 890.6 213.2 890.3 213.3 L 888.9 213.9 C 888.6 213.8 888.4 213.6 888.1 213.5 L 887.9 211.9 C 887.9 211.6 887.6 211.3 887.3 211.3 L 884.8 211.3 C 884.4 211.3 884.1 211.6 884.1 211.9 L 883.9 213.5 C 883.6 213.6 883.4 213.8 883.1 213.9 L 881.7 213.3 C 881.4 213.2 881 213.3 880.8 213.6 L 879.6 215.8 C 879.4 216 879.5 216.4 879.8 216.6 L 881 217.6 C 881 217.7 881 217.8 881 218 C 881 218.2 881 218.3 881 218.5 L 879.8 219.4 C 879.5 219.6 879.4 220 879.6 220.3 L 880.8 222.4 C 881 222.7 881.4 222.8 881.7 222.7 L 883.1 222.1 C 883.4 222.3 883.6 222.4 883.9 222.5 L 884.1 224.1 C 884.1 224.4 884.4 224.7 884.8 224.7 L 887.3 224.7 C 887.6 224.7 887.9 224.4 887.9 224.1 L 888.1 222.5 C 888.4 222.4 888.6 222.3 888.9 222.1 L 890.3 222.7 C 890.6 222.8 891 222.7 891.1 222.4 L 892.4 220.3 C 892.6 220 892.5 219.6 892.2 219.4 L 891 218.5 C 891 218.3 891 218.2 891 218 Z M 886 220.3 C 884.8 220.3 883.7 219.3 883.7 218 C 883.7 216.7 884.8 215.7 886 215.7 C 887.3 215.7 888.4 216.7 888.4 218 C 888.4 219.3 887.3 220.3 886 220.3 Z" stroke-linecap="round" />
</g>
<g transform="matrix(1,0,0,1,-72.6,280.5)" id="P6tQOfHtVt8sbNfnZgZ7O" clip-path="url(#CLIPPATH_510)"  >
<clipPath id="CLIPPATH_510" >
	<rect id="clip1_0_384" x="-557.5" y="-656" rx="0" ry="0" width="1115" height="1312" />
</clipPath>
<path style="fill: rgb(110, 107, 123); fill-rule: nonzero; stroke: none; stroke-width: 1; stroke-linecap: butt; stroke-linejoin: miter; stroke-dasharray: none; stroke-dashoffset: 0; stroke-miterlimit: 4; opacity: 0.4"  transform="translate(-598,-352)" d="M 606 344 L 590 344 C 588.9 344 588 344.9 588 346 L 588 358 C 588 359.1 588.9 360 590 360 L 606 360 C 607.1 360 608 359.1 608 358 L 608 346 C 608 344.9 607.1 344 606 344 Z M 605.6 348.3 L 598.5 352.7 C 598.2 352.9 597.8 352.9 597.5 352.7 L 590.4 348.3 C 590.2 348.1 590 347.8 590 347.5 C 590 346.8 590.7 346.5 591.3 346.8 L 598 351 L 604.7 346.8 C 605.3 346.5 606 346.8 606 347.5 C 606 347.8 605.8 348.1 605.6 348.3 Z" stroke-linecap="round" />
</g>
<g transform="matrix(1,0,0,1,-83.4,321)" id="8SsGatufBtS7Epuxtiauq" clip-path="url(#CLIPPATH_511)"  >
<clipPath id="CLIPPATH_511" >
	<rect id="clip1_0_384" x="-557.5" y="-656" rx="0" ry="0" width="1115" height="1312" />
</clipPath>
<path style="fill: rgb(110, 107, 123); fill-rule: nonzero; stroke: none; stroke-width: 1; stroke-linecap: butt; stroke-linejoin: miter; stroke-dasharray: none; stroke-dashoffset: 0; stroke-miterlimit: 4; opacity: 0.4"  transform="translate(-719,-352)" d="M 726.2 355.3 L 723.7 355 C 723.1 354.9 722.5 355.1 722 355.6 L 720.2 357.4 C 717.4 355.9 715.1 353.6 713.6 350.8 L 715.5 349 C 715.9 348.5 716.1 347.9 716 347.3 L 715.8 344.8 C 715.6 343.8 714.8 343 713.8 343 L 712 343 C 710.9 343 710 343.9 710 345.1 C 710.6 353.6 717.4 360.4 725.9 361 C 727.1 361 728 360.1 728 359 L 728 357.3 C 728 356.2 727.3 355.4 726.2 355.3 Z" stroke-linecap="round" />
</g>
<g transform="matrix(1,0,0,1,-50.7,478.1)" id="rQ7sqZhlGw23rNIOJs76R" clip-path="url(#CLIPPATH_512)"  >
<clipPath id="CLIPPATH_512" >
	<rect id="clip2_0_384" x="-557.5" y="-509" rx="6" ry="6" width="1115" height="1018" />
</clipPath>
<path style="fill: rgb(110, 107, 123); fill-rule: nonzero; stroke: none; stroke-width: 1; stroke-linecap: butt; stroke-linejoin: miter; stroke-dasharray: none; stroke-dashoffset: 0; stroke-miterlimit: 4; opacity: 1"  transform="translate(-1551.7,-405.7)" d="M 1554.3 407.3 L 1553.8 407.3 L 1553.6 407.2 C 1554.4 406.2 1554.8 404.9 1554.6 403.6 C 1554.3 401.8 1552.8 400.3 1550.9 400 C 1548.1 399.7 1545.7 402.1 1546 404.9 C 1546.3 406.8 1547.8 408.3 1549.6 408.6 C 1550.9 408.8 1552.2 408.4 1553.2 407.6 L 1553.3 407.8 L 1553.3 408.3 L 1556.2 411.2 C 1556.4 411.4 1556.9 411.4 1557.2 411.2 C 1557.4 410.9 1557.4 410.4 1557.2 410.2 L 1554.3 407.3 Z M 1550.3 407.3 C 1548.7 407.3 1547.3 406 1547.3 404.3 C 1547.3 402.7 1548.7 401.3 1550.3 401.3 C 1552 401.3 1553.3 402.7 1553.3 404.3 C 1553.3 406 1552 407.3 1550.3 407.3 Z" stroke-linecap="round" />
</g>
<g transform="matrix(1,0,0,1,-138.2,540.5)" id="hmVd4GhrI931E58XEVVwy"  >
<path style="fill: rgb(115, 103, 240); fill-rule: nonzero; stroke: none; stroke-width: 1; stroke-linecap: butt; stroke-linejoin: miter; stroke-dasharray: none; stroke-dashoffset: 0; stroke-miterlimit: 4; opacity: 1"  transform="translate(-11.5,-11.5)" d="M 0 23 L 0 0 L 23 0 L 23 23 z" stroke-linecap="round" />
</g>
<g transform="matrix(1,0,0,1,-138.2,540.9)" id="qSwjwzE9HFqO78ECq1uE8" clip-path="url(#CLIPPATH_513)"  >
<clipPath id="CLIPPATH_513" >
	<rect id="clip3_0_384" x="-535" y="-467.5" rx="0" ry="0" width="1070" height="935" />
</clipPath>
<path style="fill: rgb(255, 255, 255); fill-rule: nonzero; stroke: none; stroke-width: 1; stroke-linecap: butt; stroke-linejoin: miter; stroke-dasharray: none; stroke-dashoffset: 0; stroke-miterlimit: 4; opacity: 1"  transform="translate(-502.5,-505.5)" d="M 506.5 501.5 L 498.5 501.5 C 498 501.5 497.5 502 497.5 502.5 L 497.5 508.5 C 497.5 509 498 509.5 498.5 509.5 L 506.5 509.5 C 507 509.5 507.5 509 507.5 508.5 L 507.5 502.5 C 507.5 502 507 501.5 506.5 501.5 Z M 506.3 503.6 L 503 505.7 C 502.7 505.9 502.3 505.9 502 505.7 L 498.7 503.6 C 498.6 503.6 498.5 503.4 498.5 503.3 C 498.5 502.9 498.9 502.7 499.1 502.9 L 502.5 505 L 505.9 502.9 C 506.1 502.7 506.5 502.9 506.5 503.3 C 506.5 503.4 506.4 503.6 506.3 503.6 Z" stroke-linecap="round" />
</g>
<g transform="matrix(1,0,0,1,-142.5,628)" id="VYwiOJGUB1lQ_7I_v97FZ"  >
<path style="fill: rgb(115, 103, 240); fill-rule: nonzero; stroke: none; stroke-width: 1; stroke-linecap: butt; stroke-linejoin: miter; stroke-dasharray: none; stroke-dashoffset: 0; stroke-miterlimit: 4; opacity: 1"  transform="translate(-11.5,-11.5)" d="M 0 23 L 0 0 L 23 0 L 23 23 z" stroke-linecap="round" />
</g>
<g transform="matrix(1,0,0,1,-142.5,628)" id="Dz_BzHB_-9dJ2J42PPeZu" clip-path="url(#CLIPPATH_514)"  >
<clipPath id="CLIPPATH_514" >
	<rect id="clip3_0_384" x="-535" y="-467.5" rx="0" ry="0" width="1070" height="935" />
</clipPath>
<path style="fill: rgb(255, 255, 255); fill-rule: nonzero; stroke: none; stroke-width: 1; stroke-linecap: butt; stroke-linejoin: miter; stroke-dasharray: none; stroke-dashoffset: 0; stroke-miterlimit: 4; opacity: 1"  transform="translate(-502.5,-576.5)" d="M 506.5 571.5 L 498.5 571.5 C 498 571.5 497.5 572 497.5 572.5 L 497.5 581.5 L 499.5 579.5 L 506.5 579.5 C 507 579.5 507.5 579.1 507.5 578.5 L 507.5 572.5 C 507.5 572 507 571.5 506.5 571.5 Z M 500 575 L 505 575 C 505.3 575 505.5 575.2 505.5 575.5 C 505.5 575.8 505.3 576 505 576 L 500 576 C 499.7 576 499.5 575.8 499.5 575.5 C 499.5 575.2 499.7 575 500 575 Z M 503 577.5 L 500 577.5 C 499.7 577.5 499.5 577.3 499.5 577 C 499.5 576.7 499.7 576.5 500 576.5 L 503 576.5 C 503.3 576.5 503.5 576.7 503.5 577 C 503.5 577.3 503.3 577.5 503 577.5 Z M 505 574.5 L 500 574.5 C 499.7 574.5 499.5 574.3 499.5 574 C 499.5 573.7 499.7 573.5 500 573.5 L 505 573.5 C 505.3 573.5 505.5 573.7 505.5 574 C 505.5 574.3 505.3 574.5 505 574.5 Z" stroke-linecap="round" />
</g>
<g transform="matrix(1,0,0,1,-89,540.5)" id="DgPTbljX73TO7thgl9rO3"  >
<path style="fill: rgb(115, 103, 240); fill-rule: nonzero; stroke: none; stroke-width: 1; stroke-linecap: butt; stroke-linejoin: miter; stroke-dasharray: none; stroke-dashoffset: 0; stroke-miterlimit: 4; opacity: 1"  transform="translate(-11.5,-11.5)" d="M 0 23 L 0 0 L 23 0 L 23 23 z" stroke-linecap="round" />
</g>
<g transform="matrix(1,0,0,1,-88.7,540.5)" id="GIaO882peJe8N-_NlXJW4" clip-path="url(#CLIPPATH_515)"  >
<clipPath id="CLIPPATH_515" >
	<rect id="clip3_0_384" x="-535" y="-467.5" rx="0" ry="0" width="1070" height="935" />
</clipPath>
<path style="fill: rgb(255, 255, 255); fill-rule: nonzero; stroke: none; stroke-width: 1; stroke-linecap: butt; stroke-linejoin: miter; stroke-dasharray: none; stroke-dashoffset: 0; stroke-miterlimit: 4; opacity: 1"  transform="translate(-502.8,-698.5)" d="M 499 699.1 L 499 700.5 C 499 700.9 499.2 701.2 499.5 701.4 L 502 702.7 C 502.3 702.9 502.7 702.9 503 702.7 L 505.5 701.4 C 505.8 701.2 506 700.9 506 700.5 L 506 699.1 L 503 700.8 C 502.7 700.9 502.3 700.9 502 700.8 L 499 699.1 Z M 502 694.3 L 497.8 696.6 C 497.5 696.7 497.5 697.3 497.8 697.4 L 502 699.7 C 502.3 699.9 502.7 699.9 503 699.7 L 507 697.5 L 507 700.5 C 507 700.8 507.2 701 507.5 701 C 507.8 701 508 700.8 508 700.5 L 508 697.3 C 508 697.1 507.9 697 507.8 696.9 L 503 694.3 C 502.7 694.1 502.3 694.1 502 694.3 Z" stroke-linecap="round" />
</g>
<g transform="matrix(1,0,0,1,-86.3,628)" id="X3Tzj6eXgCaQEyT9vkFWm"  >
<path style="fill: rgb(115, 103, 240); fill-rule: nonzero; stroke: none; stroke-width: 1; stroke-linecap: butt; stroke-linejoin: miter; stroke-dasharray: none; stroke-dashoffset: 0; stroke-miterlimit: 4; opacity: 1"  transform="translate(-11.5,-11.5)" d="M 0 23 L 0 0 L 23 0 L 23 23 z" stroke-linecap="round" />
</g>
<g transform="matrix(1,0,0,1,-86.3,628)" id="fcyjw9JXYSVkooJtKbEw0" clip-path="url(#CLIPPATH_516)"  >
<clipPath id="CLIPPATH_516" >
	<rect id="clip3_0_384" x="-535" y="-467.5" rx="0" ry="0" width="1070" height="935" />
</clipPath>
<path style="fill: rgb(255, 255, 255); fill-rule: nonzero; stroke: none; stroke-width: 1; stroke-linecap: butt; stroke-linejoin: miter; stroke-dasharray: none; stroke-dashoffset: 0; stroke-miterlimit: 4; opacity: 1"  transform="translate(-502.5,-801)" d="M 506.1 802.6 L 504.8 802.5 C 504.5 802.5 504.2 802.5 504 802.8 L 503.1 803.7 C 501.7 803 500.5 801.8 499.8 800.4 L 500.7 799.5 C 501 799.3 501 799 501 798.7 L 500.9 797.4 C 500.8 796.9 500.4 796.5 499.9 796.5 L 499 796.5 C 498.4 796.5 498 797 498 797.5 C 498.3 801.8 501.7 805.2 506 805.5 C 506.5 805.5 507 805.1 507 804.5 L 507 803.6 C 507 803.1 506.6 802.7 506.1 802.6 Z" stroke-linecap="round" />
</g>
<g transform="matrix(1,0,0,1,-142.5,674.8)" id="uT2LseYwsvuVVzCwuVngO"  >
<path style="fill: rgb(115, 103, 240); fill-rule: nonzero; stroke: none; stroke-width: 1; stroke-linecap: butt; stroke-linejoin: miter; stroke-dasharray: none; stroke-dashoffset: 0; stroke-miterlimit: 4; opacity: 1"  transform="translate(-4.5,-4.5)" d="M 0 9 L 0 0 L 9 0 L 9 9 z" stroke-linecap="round" />
</g>
</svg>