<?xml version="1.0" encoding="UTF-8" standalone="no" ?>
<!DOCTYPE svg PUBLIC "-//W3C//DTD SVG 1.1//EN" "http://www.w3.org/Graphics/SVG/1.1/DTD/svg11.dtd">
<svg xmlns="http://www.w3.org/2000/svg" version="1.1" width="25" height="25" viewBox="0 0 25 25" xml:space="preserve">
<g transform="matrix(1 0 0 1 -39.6155714286 310.512)" id="ltGTpMdgsEdPQp1FpzkUZ"  >
<path style="stroke: none; stroke-width: 1; stroke-dasharray: none; stroke-linecap: butt; stroke-dashoffset: 0; stroke-linejoin: miter; stroke-miterlimit: 4; fill: rgb(110,107,123); fill-rule: nonzero; opacity: 1;"  transform=" translate(-420.631, -173)" d="M 423.25 179.012 L 415.762 179.012 L 415.762 169.238 C 415.762 168.852 415.41 168.5 414.988 168.5 C 414.602 168.5 414.25 168.852 414.25 169.238 L 414.25 179.012 C 414.25 179.82 414.918 180.488 415.762 180.488 L 423.25 180.488 C 423.672 180.488 423.988 180.172 423.988 179.75 C 423.988 179.328 423.672 179.012 423.25 179.012 Z M 427.012 175.988 L 427.012 166.988 C 427.012 166.18 426.309 165.512 425.5 165.512 L 418.75 165.512 C 417.941 165.512 417.238 166.18 417.238 166.988 L 417.238 175.988 C 417.238 176.832 417.941 177.5 418.75 177.5 L 425.5 177.5 C 426.309 177.5 427.012 176.832 427.012 175.988 Z M 425.5 175.988 L 418.75 175.988 L 418.75 166.988 L 425.5 166.988 L 425.5 175.988 Z" stroke-linecap="round" />
</g>
<g transform="matrix(1 0 0 1 -116.5853371849 107.516)" id="nZRYOO9Y4bJzpoIH3o5lw"  >
<path style="stroke: none; stroke-width: 1; stroke-dasharray: none; stroke-linecap: butt; stroke-dashoffset: 0; stroke-linejoin: miter; stroke-miterlimit: 4; fill: rgb(110,107,123); fill-rule: nonzero; opacity: 1;"  transform=" translate(-122.070125, -265.5)" d="M 124.016 263.016 C 124.016 263.531 123.547 264 122.984 264 L 113.984 264 C 113.469 264 113 263.531 113 263.016 C 113 262.453 113.469 261.984 113.984 261.984 L 122.984 261.984 C 123.547 261.984 124.016 262.453 124.016 263.016 Z M 113 258.984 C 113 259.547 113.469 260.016 113.984 260.016 L 122.984 260.016 C 123.547 260.016 124.016 259.547 124.016 258.984 C 124.016 258.469 123.547 258 122.984 258 L 113.984 258 C 113.469 258 113 258.469 113 258.984 Z M 119.984 267 C 119.984 266.438 119.562 266.016 119 266.016 L 113.984 266.016 C 113.469 266.016 113 266.438 113 267 C 113 267.562 113.469 267.984 113.984 267.984 L 119 267.984 C 119.562 267.984 119.984 267.562 119.984 267 Z M 128 264.891 L 128.703 264.141 C 129.125 263.766 129.734 263.766 130.109 264.141 L 130.859 264.891 C 131.234 265.266 131.234 265.875 130.859 266.297 L 130.109 267 L 128 264.891 Z M 127.297 265.594 L 122.141 270.75 C 122.047 270.844 122 270.938 122 271.078 L 122 272.484 C 122 272.766 122.234 273 122.516 273 L 123.922 273 C 124.062 273 124.156 272.953 124.25 272.859 L 129.406 267.703 L 127.297 265.594 Z" stroke-linecap="round" />
</g>
<g transform="matrix(1 0 0 1 -20.8 216.032)" id="666c-2xgQHBimKt-_ei7U"  >
<path style="stroke: none; stroke-width: 1; stroke-dasharray: none; stroke-linecap: butt; stroke-dashoffset: 0; stroke-linejoin: miter; stroke-miterlimit: 4; fill: rgb(110,107,123); fill-rule: nonzero; opacity: 1;"  transform=" translate(-179.2, -264)" d="M 187.216 254.016 L 171.184 254.016 C 170.106 254.016 169.216 254.906 169.216 255.984 L 169.216 273.984 L 173.2 270 L 187.216 270 C 188.294 270 189.184 269.109 189.184 267.984 L 189.184 255.984 C 189.184 254.906 188.294 254.016 187.216 254.016 Z M 174.184 261 L 184.216 261 C 184.731 261 185.2 261.469 185.2 261.984 C 185.2 262.547 184.731 263.016 184.216 263.016 L 174.184 263.016 C 173.669 263.016 173.2 262.547 173.2 261.984 C 173.2 261.469 173.669 261 174.184 261 Z M 180.184 266.016 L 174.184 266.016 C 173.669 266.016 173.2 265.547 173.2 264.984 C 173.2 264.469 173.669 264 174.184 264 L 180.184 264 C 180.747 264 181.216 264.469 181.216 264.984 C 181.216 265.547 180.747 266.016 180.184 266.016 Z M 184.216 260.016 L 174.184 260.016 C 173.669 260.016 173.2 259.547 173.2 258.984 C 173.2 258.469 173.669 258 174.184 258 L 184.216 258 C 184.731 258 185.2 258.469 185.2 258.984 C 185.2 259.547 184.731 260.016 184.216 260.016 Z" stroke-linecap="round" />
</g>
<g transform="matrix(1 0 0 1 -35.0285714286 250.976)" id="PYuguqcECH3vxXSDlkJXx"  >
<path style="stroke: none; stroke-width: 1; stroke-dasharray: none; stroke-linecap: butt; stroke-dashoffset: 0; stroke-linejoin: miter; stroke-miterlimit: 4; fill: rgb(110,107,123); fill-rule: nonzero; opacity: 1;"  transform=" translate(-236.4, -262.992)" d="M 243.384 255 L 242.4 255 L 242.4 254.016 C 242.4 253.453 241.931 252.984 241.416 252.984 C 240.853 252.984 240.384 253.453 240.384 254.016 L 240.384 255 L 232.416 255 L 232.416 254.016 C 232.416 253.453 231.947 252.984 231.384 252.984 C 230.869 252.984 230.4 253.453 230.4 254.016 L 230.4 255 L 229.416 255 C 228.291 255 227.4 255.891 227.4 257.016 L 227.4 270.984 C 227.4 272.109 228.291 273 229.416 273 L 243.384 273 C 244.509 273 245.4 272.109 245.4 270.984 L 245.4 257.016 C 245.4 255.891 244.509 255 243.384 255 Z M 242.4 270.984 L 230.4 270.984 C 229.838 270.984 229.416 270.562 229.416 270 L 229.416 260.016 L 243.384 260.016 L 243.384 270 C 243.384 270.562 242.963 270.984 242.4 270.984 Z M 232.416 261.984 L 235.416 261.984 C 235.931 261.984 236.4 262.453 236.4 263.016 L 236.4 266.016 C 236.4 266.531 235.931 267 235.416 267 L 232.416 267 C 231.853 267 231.384 266.531 231.384 266.016 L 231.384 263.016 C 231.384 262.453 231.853 261.984 232.416 261.984 Z" stroke-linecap="round" />
</g>
<g transform="matrix(1 0 0 1 -36.0125714286 280.502)" id="uDfxpayrI2-DZ4NUjjzUp"  >
<path style="stroke: none; stroke-width: 1; stroke-dasharray: none; stroke-linecap: butt; stroke-dashoffset: 0; stroke-linejoin: miter; stroke-miterlimit: 4; fill: rgb(110,107,123); fill-rule: nonzero; opacity: 1;"  transform=" translate(-293.6, -264)" d="M 301.616 255.984 L 285.584 255.984 C 284.506 255.984 283.616 256.922 283.616 258 L 283.616 270 C 283.616 271.078 284.506 272.016 285.584 272.016 L 301.616 272.016 C 302.694 272.016 303.584 271.078 303.584 270 L 303.584 258 C 303.584 256.922 302.694 255.984 301.616 255.984 Z M 301.194 260.25 L 294.116 264.656 C 293.787 264.891 293.412 264.891 293.084 264.656 L 286.006 260.25 C 285.772 260.109 285.584 259.828 285.584 259.547 C 285.584 258.844 286.334 258.469 286.897 258.797 L 293.6 263.016 L 300.303 258.797 C 300.866 258.469 301.616 258.844 301.616 259.547 C 301.616 259.828 301.428 260.109 301.194 260.25 Z" stroke-linecap="round" />
</g>
<g transform="matrix(1 0 0 1 -32.7345714286 342.0202481745)" id="1HrByvrI62OG0d00F2RL-"  >
<path style="stroke: none; stroke-width: 1; stroke-dasharray: none; stroke-linecap: butt; stroke-dashoffset: 0; stroke-linejoin: miter; stroke-miterlimit: 4; fill: rgb(110,107,123); fill-rule: nonzero; opacity: 1;"  transform=" translate(-350.8202481745, -263.9797518255)" d="M 358.019 267.281 L 355.487 266.953 C 354.878 266.906 354.269 267.094 353.847 267.562 L 352.019 269.391 C 349.159 267.938 346.862 265.641 345.409 262.781 L 347.284 260.953 C 347.706 260.531 347.894 259.922 347.847 259.312 L 347.566 256.781 C 347.425 255.75 346.581 255 345.55 255 L 343.816 255 C 342.691 255 341.753 255.938 341.847 257.062 C 342.362 265.641 349.206 272.438 357.737 272.953 C 358.862 273.047 359.8 272.109 359.8 270.984 L 359.8 269.25 C 359.8 268.219 359.05 267.375 358.019 267.281 Z" stroke-linecap="round" />
</g>
<g transform="matrix(1 0 0 1 -31.284 371.5)" id="t6iBE1u9n4HKmsChcZclX"  >
<path style="stroke: none; stroke-width: 1; stroke-dasharray: none; stroke-linecap: butt; stroke-dashoffset: 0; stroke-linejoin: miter; stroke-miterlimit: 4; fill: rgb(110,107,123); fill-rule: nonzero; opacity: 1;"  transform=" translate(-408, -264)" d="M 402 261.984 C 400.922 261.984 399.984 262.922 399.984 264 C 399.984 265.078 400.922 266.016 402 266.016 C 403.078 266.016 404.016 265.078 404.016 264 C 404.016 262.922 403.078 261.984 402 261.984 Z M 414 261.984 C 412.922 261.984 411.984 262.922 411.984 264 C 411.984 265.078 412.922 266.016 414 266.016 C 415.078 266.016 416.016 265.078 416.016 264 C 416.016 262.922 415.078 261.984 414 261.984 Z M 408 261.984 C 406.922 261.984 405.984 262.922 405.984 264 C 405.984 265.078 406.922 266.016 408 266.016 C 409.078 266.016 410.016 265.078 410.016 264 C 410.016 262.922 409.078 261.984 408 261.984 Z" stroke-linecap="round" />
</g>
<g transform="matrix(1 0 0 1 -92.8403361345 363.472)" id="OiafBGrVhtwWN-uBq5yUH"  >
<path style="stroke: none; stroke-width: 1; stroke-dasharray: none; stroke-linecap: butt; stroke-dashoffset: 0; stroke-linejoin: miter; stroke-miterlimit: 4; fill: rgb(110,107,123); fill-rule: nonzero; opacity: 1;"  transform=" translate(-108, -334)" d="M 107.344 338 C 107.344 338.719 106.719 339.344 106 339.344 C 105.281 339.344 104.656 338.719 104.656 338 C 104.656 337.281 105.281 336.656 106 336.656 C 106.719 336.656 107.344 337.281 107.344 338 Z M 106 332.656 C 105.281 332.656 104.656 333.281 104.656 334 C 104.656 334.719 105.281 335.344 106 335.344 C 106.719 335.344 107.344 334.719 107.344 334 C 107.344 333.281 106.719 332.656 106 332.656 Z M 106 328.656 C 105.281 328.656 104.656 329.281 104.656 330 C 104.656 330.719 105.281 331.344 106 331.344 C 106.719 331.344 107.344 330.719 107.344 330 C 107.344 329.281 106.719 328.656 106 328.656 Z M 110 331.344 C 110.719 331.344 111.344 330.719 111.344 330 C 111.344 329.281 110.719 328.656 110 328.656 C 109.281 328.656 108.656 329.281 108.656 330 C 108.656 330.719 109.281 331.344 110 331.344 Z M 110 332.656 C 109.281 332.656 108.656 333.281 108.656 334 C 108.656 334.719 109.281 335.344 110 335.344 C 110.719 335.344 111.344 334.719 111.344 334 C 111.344 333.281 110.719 332.656 110 332.656 Z M 110 336.656 C 109.281 336.656 108.656 337.281 108.656 338 C 108.656 338.719 109.281 339.344 110 339.344 C 110.719 339.344 111.344 338.719 111.344 338 C 111.344 337.281 110.719 336.656 110 336.656 Z" stroke-linecap="round" />
</g>
<g transform="matrix(1 0 0 1 -34.8 404.4979272792)" id="oh3499CoN-enBXGCm5JG2"  >
<path style="stroke: none; stroke-width: 1; stroke-dasharray: none; stroke-linecap: butt; stroke-dashoffset: 0; stroke-linejoin: miter; stroke-miterlimit: 4; fill: rgb(110,107,123); fill-rule: nonzero; opacity: 1;"  transform=" translate(-424, -910.5)" d="M 419.5 913.219 L 419.5 914.742 C 419.5 914.883 419.617 915 419.758 915 L 421.281 915 C 421.328 915 421.398 914.977 421.445 914.93 L 426.906 909.469 L 425.031 907.594 L 419.57 913.055 C 419.523 913.102 419.5 913.148 419.5 913.219 Z M 428.359 908.016 C 428.547 907.828 428.547 907.5 428.359 907.312 L 427.188 906.141 C 427 905.953 426.672 905.953 426.484 906.141 L 425.57 907.055 L 427.445 908.93 L 428.359 908.016 Z" stroke-linecap="round" />
</g>
<g transform="matrix(1 0 0 1 -116.0264621849 188.0158)" id="14RTPM1O1670MKPaRGjGE" clip-path="url(#CLIPPATH_566)"  >
<clipPath id="CLIPPATH_566" >
	<rect id="clip1_0_384" x="-557.5" y="-656" rx="0" ry="0" width="1115" height="1312" />
</clipPath>
<path style="stroke: none; stroke-width: 1; stroke-dasharray: none; stroke-linecap: butt; stroke-dashoffset: 0; stroke-linejoin: miter; stroke-miterlimit: 4; fill: rgb(110,107,123); fill-rule: nonzero; opacity: 1;"  transform=" translate(-1568.49125, -99.0002)" d="M 1565.98 93 C 1565.98 91.875 1566.88 90.9844 1568 90.9844 C 1569.12 90.9844 1570.02 91.875 1570.02 93 C 1570.02 94.125 1569.12 95.0156 1568 95.0156 C 1566.88 95.0156 1565.98 94.125 1565.98 93 Z M 1559.98 105 C 1559.98 103.875 1560.88 102.984 1562 102.984 C 1563.12 102.984 1564.02 103.875 1564.02 105 C 1564.02 106.125 1563.12 107.016 1562 107.016 C 1560.88 107.016 1559.98 106.125 1559.98 105 Z M 1559.98 99 C 1559.98 97.875 1560.88 96.9844 1562 96.9844 C 1563.12 96.9844 1564.02 97.875 1564.02 99 C 1564.02 100.125 1563.12 101.016 1562 101.016 C 1560.88 101.016 1559.98 100.125 1559.98 99 Z M 1559.98 93 C 1559.98 91.875 1560.88 90.9844 1562 90.9844 C 1563.12 90.9844 1564.02 91.875 1564.02 93 C 1564.02 94.125 1563.12 95.0156 1562 95.0156 C 1560.88 95.0156 1559.98 94.125 1559.98 93 Z M 1571.98 93 C 1571.98 91.875 1572.88 90.9844 1574 90.9844 C 1575.12 90.9844 1576.02 91.875 1576.02 93 C 1576.02 94.125 1575.12 95.0156 1574 95.0156 C 1572.88 95.0156 1571.98 94.125 1571.98 93 Z M 1567.02 105.047 L 1567.02 106.5 C 1567.02 106.781 1567.2 107.016 1567.48 107.016 L 1568.89 107.016 C 1569.03 107.016 1569.17 106.969 1569.27 106.828 L 1575.08 101.016 L 1572.97 98.9062 L 1567.16 104.719 C 1567.06 104.812 1567.02 104.953 1567.02 105.047 Z M 1568.05 101.016 L 1570.02 99.0469 L 1570.02 99 C 1570.02 97.9219 1569.08 96.9844 1568 96.9844 C 1566.92 96.9844 1565.98 97.9219 1565.98 99 C 1565.98 100.078 1566.92 101.016 1568 101.016 L 1568.05 101.016 Z M 1576.86 98.5781 L 1575.45 97.1719 C 1575.22 96.9375 1574.94 96.9375 1574.75 97.1719 L 1573.67 98.2031 L 1575.78 100.312 L 1576.86 99.2812 C 1577.05 99.0469 1577.05 98.7656 1576.86 98.5781 Z" stroke-linecap="round" />
</g>
<g transform="matrix(1 0 0 1 12.5980871465 12.5719178082)" id="Rn_T9AGJnXNCcmFpTNd_V" clip-path="url(#CLIPPATH_567)"  >
<clipPath id="CLIPPATH_567" >
	<rect id="clip1_0_384" x="-557.5" y="-656" rx="0" ry="0" width="1115" height="1312" />
</clipPath>
<!-- COLOR fill -->
<path style="stroke: none; stroke-width: 1; stroke-dasharray: none; stroke-linecap: butt; stroke-dashoffset: 0; stroke-linejoin: miter; stroke-miterlimit: 4; fill: rgb(0,0,0); fill-rule: nonzero; opacity: 1;"  transform=" translate(-886, -218)" d="M 891 218 C 891 217.844 891 217.688 890.969 217.531 L 892.219 216.594 C 892.5 216.406 892.562 216.031 892.406 215.75 L 891.156 213.594 C 890.969 213.281 890.625 213.188 890.312 213.312 L 888.875 213.906 C 888.625 213.75 888.375 213.594 888.094 213.469 L 887.906 211.906 C 887.875 211.594 887.594 211.344 887.25 211.344 L 884.75 211.344 C 884.406 211.344 884.125 211.594 884.094 211.906 L 883.906 213.469 C 883.625 213.594 883.375 213.75 883.125 213.906 L 881.688 213.312 C 881.375 213.188 881.031 213.281 880.844 213.594 L 879.594 215.75 C 879.438 216.031 879.5 216.406 879.781 216.625 L 881.031 217.562 C 881 217.688 881 217.844 881 218 C 881 218.156 881 218.312 881.031 218.469 L 879.781 219.406 C 879.5 219.594 879.438 219.969 879.594 220.25 L 880.844 222.406 C 881.031 222.719 881.375 222.812 881.688 222.688 L 883.125 222.094 C 883.375 222.25 883.625 222.406 883.906 222.531 L 884.094 224.094 C 884.125 224.406 884.406 224.656 884.75 224.656 L 887.25 224.656 C 887.562 224.656 887.875 224.406 887.906 224.094 L 888.094 222.531 C 888.375 222.406 888.625 222.25 888.875 222.094 L 890.312 222.688 C 890.625 222.812 890.969 222.719 891.125 222.406 L 892.375 220.25 C 892.562 219.969 892.469 219.594 892.219 219.406 L 890.969 218.469 C 891 218.312 891 218.156 891 218 Z M 886.031 220.344 C 884.75 220.344 883.688 219.281 883.688 218 C 883.688 216.719 884.75 215.656 886.031 215.656 C 887.312 215.656 888.375 216.719 888.375 218 C 888.375 219.281 887.312 220.344 886.031 220.344 Z" stroke-linecap="round" />
</g>
<g transform="matrix(1 0 0 1 -72.6376049383 280.502)" id="P6tQOfHtVt8sbNfnZgZ7O" clip-path="url(#CLIPPATH_568)"  >
<clipPath id="CLIPPATH_568" >
	<rect id="clip1_0_384" x="-557.5" y="-656" rx="0" ry="0" width="1115" height="1312" />
</clipPath>
<path style="stroke: none; stroke-width: 1; stroke-dasharray: none; stroke-linecap: butt; stroke-dashoffset: 0; stroke-linejoin: miter; stroke-miterlimit: 4; fill: rgb(110,107,123); fill-rule: nonzero; opacity: 0.4;"  transform=" translate(-598, -352)" d="M 606.016 343.984 L 589.984 343.984 C 588.906 343.984 588.016 344.922 588.016 346 L 588.016 358 C 588.016 359.078 588.906 360.016 589.984 360.016 L 606.016 360.016 C 607.094 360.016 607.984 359.078 607.984 358 L 607.984 346 C 607.984 344.922 607.094 343.984 606.016 343.984 Z M 605.594 348.25 L 598.516 352.656 C 598.188 352.891 597.812 352.891 597.484 352.656 L 590.406 348.25 C 590.172 348.109 589.984 347.828 589.984 347.547 C 589.984 346.844 590.734 346.469 591.297 346.797 L 598 351.016 L 604.703 346.797 C 605.266 346.469 606.016 346.844 606.016 347.547 C 606.016 347.828 605.828 348.109 605.594 348.25 Z" stroke-linecap="round" />
</g>
<g transform="matrix(1 0 0 1 -83.360584309 321.0202481745)" id="8SsGatufBtS7Epuxtiauq" clip-path="url(#CLIPPATH_569)"  >
<clipPath id="CLIPPATH_569" >
	<rect id="clip1_0_384" x="-557.5" y="-656" rx="0" ry="0" width="1115" height="1312" />
</clipPath>
<path style="stroke: none; stroke-width: 1; stroke-dasharray: none; stroke-linecap: butt; stroke-dashoffset: 0; stroke-linejoin: miter; stroke-miterlimit: 4; fill: rgb(110,107,123); fill-rule: nonzero; opacity: 0.4;"  transform=" translate(-719.0202481745, -351.9797518255)" d="M 726.219 355.281 L 723.688 354.953 C 723.078 354.906 722.469 355.094 722.047 355.562 L 720.219 357.391 C 717.359 355.938 715.062 353.641 713.609 350.781 L 715.484 348.953 C 715.906 348.531 716.094 347.922 716.047 347.312 L 715.766 344.781 C 715.625 343.75 714.781 343 713.75 343 L 712.016 343 C 710.891 343 709.953 343.938 710.047 345.062 C 710.562 353.641 717.406 360.438 725.938 360.953 C 727.062 361.047 728 360.109 728 358.984 L 728 357.25 C 728 356.219 727.25 355.375 726.219 355.281 Z" stroke-linecap="round" />
</g>
<g transform="matrix(1 0 0 1 -50.7148582373 478.096506743)" id="rQ7sqZhlGw23rNIOJs76R" clip-path="url(#CLIPPATH_570)"  >
<clipPath id="CLIPPATH_570" >
	<rect id="clip2_0_384" x="-557.5" y="-509" rx="6" ry="6" width="1115" height="1018" />
</clipPath>
<path style="stroke: none; stroke-width: 1; stroke-dasharray: none; stroke-linecap: butt; stroke-dashoffset: 0; stroke-linejoin: miter; stroke-miterlimit: 4; fill: rgb(110,107,123); fill-rule: nonzero; opacity: 1;"  transform=" translate(-1551.6837131913, -405.6827136396)" d="M 1554.34 407.344 L 1553.81 407.344 L 1553.62 407.156 C 1554.41 406.219 1554.84 404.938 1554.59 403.594 C 1554.28 401.75 1552.75 400.25 1550.88 400.031 C 1548.06 399.688 1545.69 402.062 1546.03 404.875 C 1546.25 406.75 1547.75 408.281 1549.59 408.594 C 1550.94 408.844 1552.22 408.406 1553.16 407.625 L 1553.34 407.812 L 1553.34 408.344 L 1556.16 411.156 C 1556.44 411.438 1556.88 411.438 1557.16 411.156 C 1557.44 410.906 1557.44 410.438 1557.16 410.188 L 1554.34 407.344 Z M 1550.34 407.344 C 1548.69 407.344 1547.34 406 1547.34 404.344 C 1547.34 402.688 1548.69 401.344 1550.34 401.344 C 1552 401.344 1553.34 402.688 1553.34 404.344 C 1553.34 406 1552 407.344 1550.34 407.344 Z" stroke-linecap="round" />
</g>
<g transform="matrix(1 0 0 1 -138.1554621849 540.5)" id="hmVd4GhrI931E58XEVVwy"  >
<path style="stroke: none; stroke-width: 1; stroke-dasharray: none; stroke-linecap: butt; stroke-dashoffset: 0; stroke-linejoin: miter; stroke-miterlimit: 4; fill: rgb(115,103,240); fill-rule: nonzero; opacity: 1;"  transform=" translate(-11.5, -11.5)" d="M 0 23 L 0 0 L 23 0 L 23 23 z" stroke-linecap="round" />
</g>
<g transform="matrix(1 0 0 1 -138.1554621849 540.857)" id="qSwjwzE9HFqO78ECq1uE8" clip-path="url(#CLIPPATH_571)"  >
<clipPath id="CLIPPATH_571" >
	<rect id="clip3_0_384" x="-535" y="-467.5" rx="0" ry="0" width="1070" height="935" />
</clipPath>
<path style="stroke: none; stroke-width: 1; stroke-dasharray: none; stroke-linecap: butt; stroke-dashoffset: 0; stroke-linejoin: miter; stroke-miterlimit: 4; fill: rgb(255,255,255); fill-rule: nonzero; opacity: 1;"  transform=" translate(-502.5, -505.5)" d="M 506.508 501.492 L 498.492 501.492 C 497.953 501.492 497.508 501.961 497.508 502.5 L 497.508 508.5 C 497.508 509.039 497.953 509.508 498.492 509.508 L 506.508 509.508 C 507.047 509.508 507.492 509.039 507.492 508.5 L 507.492 502.5 C 507.492 501.961 507.047 501.492 506.508 501.492 Z M 506.297 503.625 L 503.039 505.664 C 502.711 505.875 502.289 505.875 501.961 505.664 L 498.703 503.625 C 498.586 503.555 498.492 503.414 498.492 503.273 C 498.492 502.922 498.867 502.734 499.148 502.898 L 502.5 505.008 L 505.852 502.898 C 506.133 502.734 506.508 502.922 506.508 503.273 C 506.508 503.414 506.414 503.555 506.297 503.625 Z" stroke-linecap="round" />
</g>
<g transform="matrix(1 0 0 1 -142.5474137931 628)" id="VYwiOJGUB1lQ_7I_v97FZ"  >
<path style="stroke: none; stroke-width: 1; stroke-dasharray: none; stroke-linecap: butt; stroke-dashoffset: 0; stroke-linejoin: miter; stroke-miterlimit: 4; fill: rgb(115,103,240); fill-rule: nonzero; opacity: 1;"  transform=" translate(-11.5, -11.5)" d="M 0 23 L 0 0 L 23 0 L 23 23 z" stroke-linecap="round" />
</g>
<g transform="matrix(1 0 0 1 -142.5474137931 628)" id="Dz_BzHB_-9dJ2J42PPeZu" clip-path="url(#CLIPPATH_572)"  >
<clipPath id="CLIPPATH_572" >
	<rect id="clip3_0_384" x="-535" y="-467.5" rx="0" ry="0" width="1070" height="935" />
</clipPath>
<path style="stroke: none; stroke-width: 1; stroke-dasharray: none; stroke-linecap: butt; stroke-dashoffset: 0; stroke-linejoin: miter; stroke-miterlimit: 4; fill: rgb(255,255,255); fill-rule: nonzero; opacity: 1;"  transform=" translate(-502.5, -576.5)" d="M 506.508 571.508 L 498.492 571.508 C 497.953 571.508 497.508 571.953 497.508 572.492 L 497.508 581.492 L 499.5 579.5 L 506.508 579.5 C 507.047 579.5 507.492 579.055 507.492 578.492 L 507.492 572.492 C 507.492 571.953 507.047 571.508 506.508 571.508 Z M 499.992 575 L 505.008 575 C 505.266 575 505.5 575.234 505.5 575.492 C 505.5 575.773 505.266 576.008 505.008 576.008 L 499.992 576.008 C 499.734 576.008 499.5 575.773 499.5 575.492 C 499.5 575.234 499.734 575 499.992 575 Z M 502.992 577.508 L 499.992 577.508 C 499.734 577.508 499.5 577.273 499.5 576.992 C 499.5 576.734 499.734 576.5 499.992 576.5 L 502.992 576.5 C 503.273 576.5 503.508 576.734 503.508 576.992 C 503.508 577.273 503.273 577.508 502.992 577.508 Z M 505.008 574.508 L 499.992 574.508 C 499.734 574.508 499.5 574.273 499.5 573.992 C 499.5 573.734 499.734 573.5 499.992 573.5 L 505.008 573.5 C 505.266 573.5 505.5 573.734 505.5 573.992 C 505.5 574.273 505.266 574.508 505.008 574.508 Z" stroke-linecap="round" />
</g>
<g transform="matrix(1 0 0 1 -88.9963361345 540.5)" id="DgPTbljX73TO7thgl9rO3"  >
<path style="stroke: none; stroke-width: 1; stroke-dasharray: none; stroke-linecap: butt; stroke-dashoffset: 0; stroke-linejoin: miter; stroke-miterlimit: 4; fill: rgb(115,103,240); fill-rule: nonzero; opacity: 1;"  transform=" translate(-11.5, -11.5)" d="M 0 23 L 0 0 L 23 0 L 23 23 z" stroke-linecap="round" />
</g>
<g transform="matrix(1 0 0 1 -88.7179611345 540.5)" id="GIaO882peJe8N-_NlXJW4" clip-path="url(#CLIPPATH_573)"  >
<clipPath id="CLIPPATH_573" >
	<rect id="clip3_0_384" x="-535" y="-467.5" rx="0" ry="0" width="1070" height="935" />
</clipPath>
<path style="stroke: none; stroke-width: 1; stroke-dasharray: none; stroke-linecap: butt; stroke-dashoffset: 0; stroke-linejoin: miter; stroke-miterlimit: 4; fill: rgb(255,255,255); fill-rule: nonzero; opacity: 1;"  transform=" translate(-502.778375, -698.5)" d="M 499.008 699.086 L 499.008 700.492 C 499.008 700.867 499.195 701.195 499.523 701.383 L 502.031 702.742 C 502.312 702.906 502.688 702.906 502.969 702.742 L 505.477 701.383 C 505.805 701.195 505.992 700.867 505.992 700.492 L 505.992 699.086 L 502.969 700.75 C 502.688 700.914 502.312 700.914 502.031 700.75 L 499.008 699.086 Z M 502.031 694.258 L 497.812 696.555 C 497.461 696.742 497.461 697.258 497.812 697.445 L 502.031 699.742 C 502.312 699.906 502.688 699.906 502.969 699.742 L 507 697.539 L 507 700.492 C 507 700.773 507.234 701.008 507.492 701.008 C 507.773 701.008 508.008 700.773 508.008 700.492 L 508.008 697.305 C 508.008 697.117 507.891 696.953 507.75 696.859 L 502.969 694.258 C 502.688 694.094 502.312 694.094 502.031 694.258 Z" stroke-linecap="round" />
</g>
<g transform="matrix(1 0 0 1 -86.2716049383 628)" id="X3Tzj6eXgCaQEyT9vkFWm"  >
<path style="stroke: none; stroke-width: 1; stroke-dasharray: none; stroke-linecap: butt; stroke-dashoffset: 0; stroke-linejoin: miter; stroke-miterlimit: 4; fill: rgb(115,103,240); fill-rule: nonzero; opacity: 1;"  transform=" translate(-11.5, -11.5)" d="M 0 23 L 0 0 L 23 0 L 23 23 z" stroke-linecap="round" />
</g>
<g transform="matrix(1 0 0 1 -86.2616680163 627.990063078)" id="fcyjw9JXYSVkooJtKbEw0" clip-path="url(#CLIPPATH_574)"  >
<clipPath id="CLIPPATH_574" >
	<rect id="clip3_0_384" x="-535" y="-467.5" rx="0" ry="0" width="1070" height="935" />
</clipPath>
<path style="stroke: none; stroke-width: 1; stroke-dasharray: none; stroke-linecap: butt; stroke-dashoffset: 0; stroke-linejoin: miter; stroke-miterlimit: 4; fill: rgb(255,255,255); fill-rule: nonzero; opacity: 1;"  transform=" translate(-502.509936922, -800.990063078)" d="M 506.109 802.641 L 504.844 802.477 C 504.539 802.453 504.234 802.547 504.023 802.781 L 503.109 803.695 C 501.68 802.969 500.531 801.82 499.805 800.391 L 500.742 799.477 C 500.953 799.266 501.047 798.961 501.023 798.656 L 500.883 797.391 C 500.812 796.875 500.391 796.5 499.875 796.5 L 499.008 796.5 C 498.445 796.5 497.977 796.969 498.023 797.531 C 498.281 801.82 501.703 805.219 505.969 805.477 C 506.531 805.523 507 805.055 507 804.492 L 507 803.625 C 507 803.109 506.625 802.688 506.109 802.641 Z" stroke-linecap="round" />
</g>
<g transform="matrix(1 0 0 1 -142.5474137931 674.8483146067)" id="uT2LseYwsvuVVzCwuVngO"  >
<path style="stroke: none; stroke-width: 1; stroke-dasharray: none; stroke-linecap: butt; stroke-dashoffset: 0; stroke-linejoin: miter; stroke-miterlimit: 4; fill: rgb(115,103,240); fill-rule: nonzero; opacity: 1;"  transform=" translate(-4.5, -4.5)" d="M 0 9 L 0 0 L 9 0 L 9 9 z" stroke-linecap="round" />
</g>
</svg>